<svg version="1.1" viewBox="0.0 0.0 600.0 371.0" fill="none" stroke="none" stroke-linecap="square" stroke-miterlimit="10" width="600" height="371" xmlns:xlink="http://www.w3.org/1999/xlink" xmlns="http://www.w3.org/2000/svg"><path fill="#ffffff" d="M0 0L600.0 0L600.0 371.0L0 371.0L0 0Z" fill-rule="nonzero"/><path fill="#4285f4" d="M300.0 18.55C339.7513 18.55 378.1982 32.73381 408.42535 58.550224L354.21268 122.02511C339.09912 109.116905 319.87567 102.025 300.0 102.025Z" fill-rule="nonzero"/><path fill="#ff6d00" d="M295.62976 18.60721C297.08618 18.56907 298.54306 18.55 300.0 18.55L300.0 102.025C299.27155 102.025 298.5431 102.03454 297.81488 102.053604Z" fill-rule="nonzero"/><path fill="#0f9d58" d="M265.28915 22.198257C275.27167 20.076408 285.4277 18.87436 295.62976 18.60721L297.81488 102.053604C292.71387 102.18718 287.63583 102.7882 282.64456 103.84913Z" fill-rule="nonzero"/><path fill="#f4b400" d="M164.93462 283.63074C131.70523 237.89442 123.87906 178.44876 144.13875 125.67047C164.39844 72.89218 209.99133 33.95217 265.28915 22.198257L282.64456 103.84913C254.99567 109.72608 232.19922 129.19609 222.06937 155.58524C211.93953 181.97438 215.85262 211.69722 232.4673 234.56537Z" fill-rule="nonzero"/><path fill="#db4437" d="M408.42535 58.550224C457.3616 100.345726 477.91772 166.54727 461.26132 228.70984C444.60492 290.8724 393.702 337.92657 330.42422 349.65442C267.14642 361.38226 202.76178 335.69537 164.93462 283.63074L232.4673 234.56537C251.38089 260.5977 283.5732 273.44113 315.2121 267.5772C346.851 261.7133 372.30246 238.1862 380.63065 207.10492C388.95886 176.02364 378.6808 142.92287 354.21268 122.02511Z" fill-rule="nonzero"/><path fill="#ffffff" d="M330.6716 68.87001L329.40598 68.87001L329.40598 60.448135L326.84348 61.37001L326.84348 60.229385L330.46848 58.87001L330.6716 58.87001L330.6716 68.87001ZM338.6716 68.87001L337.40598 68.87001L337.40598 60.448135L334.84348 61.37001L334.84348 60.229385L338.46848 58.87001L338.6716 58.87001L338.6716 68.87001ZM342.6716 68.21376Q342.6716 67.885635 342.8591 67.666885Q343.06223 67.448135 343.45285 67.448135Q343.84348 67.448135 344.0466 67.666885Q344.24973 67.885635 344.24973 68.21376Q344.24973 68.52626 344.0466 68.74501Q343.84348 68.948135 343.45285 68.948135Q343.06223 68.948135 342.8591 68.74501Q342.6716 68.52626 342.6716 68.21376ZM348.3591 63.27626L349.2966 63.27626Q350.20285 63.260635 350.70285 62.80751Q351.21848 62.354385 351.21848 61.573135Q351.21848 59.823135 349.4841 59.823135Q348.65598 59.823135 348.1716 60.291885Q347.68723 60.760635 347.68723 61.52626L346.4216 61.52626Q346.4216 60.33876 347.28098 59.55751Q348.15598 58.77626 349.4841 58.77626Q350.89035 58.77626 351.68723 59.52626Q352.4841 60.27626 352.4841 61.58876Q352.4841 62.24501 352.06223 62.854385Q351.65598 63.46376 350.9216 63.760635Q351.74973 64.02626 352.18723 64.635635Q352.64035 65.229385 352.64035 66.08876Q352.64035 67.43251 351.76535 68.229385Q350.89035 69.010635 349.4841 69.010635Q348.09348 69.010635 347.20285 68.260635Q346.32785 67.49501 346.32785 66.24501L347.6091 66.24501Q347.6091 67.02626 348.1091 67.510635Q348.62473 67.979385 349.4841 67.979385Q350.40598 67.979385 350.89035 67.49501Q351.37473 67.010635 351.37473 66.12001Q351.37473 65.260635 350.84348 64.791885Q350.31223 64.323135 349.2966 64.30751L348.3591 64.30751L348.3591 63.27626ZM354.40598 60.823135Q354.40598 59.93251 354.96848 59.354385Q355.5466 58.77626 356.43723 58.77626Q357.3591 58.77626 357.9216 59.37001Q358.4841 59.948135 358.4841 60.87001L358.4841 61.354385Q358.4841 62.260635 357.90598 62.83876Q357.34348 63.40126 356.45285 63.40126Q355.56223 63.40126 354.9841 62.83876Q354.40598 62.260635 354.40598 61.30751L354.40598 60.823135ZM355.34348 61.354385Q355.34348 61.885635 355.64035 62.229385Q355.95285 62.573135 356.45285 62.573135Q356.93723 62.573135 357.2341 62.24501Q357.53098 61.916885 357.53098 61.323135L357.53098 60.823135Q357.53098 60.291885 357.2341 59.948135Q356.95285 59.604385 356.43723 59.604385Q355.93723 59.604385 355.64035 59.948135Q355.34348 60.291885 355.34348 60.854385L355.34348 61.354385ZM359.24973 66.43251Q359.24973 65.52626 359.81223 64.96376Q360.39035 64.385635 361.28098 64.385635Q362.18723 64.385635 362.74973 64.96376Q363.32785 65.52626 363.32785 66.479385L363.32785 66.96376Q363.32785 67.854385 362.74973 68.43251Q362.18723 69.010635 361.2966 69.010635Q360.4216 69.010635 359.82785 68.448135Q359.24973 67.87001 359.24973 66.916885L359.24973 66.43251ZM360.20285 66.96376Q360.20285 67.49501 360.49973 67.854385Q360.7966 68.198135 361.2966 68.198135Q361.7966 68.198135 362.09348 67.854385Q362.39035 67.510635 362.39035 66.93251L362.39035 66.43251Q362.39035 65.885635 362.07785 65.541885Q361.78098 65.198135 361.2966 65.198135Q360.7966 65.198135 360.49973 65.541885Q360.20285 65.885635 360.20285 66.46376L360.20285 66.96376ZM356.74973 68.12001L356.03098 67.666885L360.89035 59.885635L361.6091 60.33876L356.74973 68.12001Z" fill-rule="nonzero"/><path fill="#ffffff" d="M367.40057 276.96198L367.9162 271.99323L373.00995 271.99323L373.00995 273.1651L368.9787 273.1651L368.68182 275.86823Q369.4162 275.44635 370.33807 275.44635Q371.69745 275.44635 372.49432 276.3526Q373.30682 277.24323 373.30682 278.77448Q373.30682 280.30573 372.46307 281.19635Q371.63495 282.08698 370.15057 282.08698Q368.83807 282.08698 367.99432 281.3526Q367.1662 280.61823 367.0412 279.32135L368.24432 279.32135Q368.3537 280.18073 368.83807 280.61823Q369.33807 281.05573 370.15057 281.05573Q371.02557 281.05573 371.52557 280.46198Q372.0412 279.8526 372.0412 278.7901Q372.0412 277.7901 371.49432 277.19635Q370.94745 276.58698 370.0412 276.58698Q369.2287 276.58698 368.74432 276.94635L368.4162 277.21198L367.40057 276.96198ZM376.6662 276.3526L377.6037 276.3526Q378.50995 276.33698 379.00995 275.88385Q379.52557 275.43073 379.52557 274.64948Q379.52557 272.89948 377.7912 272.89948Q376.96307 272.89948 376.4787 273.36823Q375.99432 273.83698 375.99432 274.6026L374.7287 274.6026Q374.7287 273.4151 375.58807 272.63385Q376.46307 271.8526 377.7912 271.8526Q379.19745 271.8526 379.99432 272.6026Q380.7912 273.3526 380.7912 274.6651Q380.7912 275.32135 380.36932 275.93073Q379.96307 276.5401 379.2287 276.83698Q380.05682 277.1026 380.49432 277.71198Q380.94745 278.30573 380.94745 279.1651Q380.94745 280.50885 380.07245 281.30573Q379.19745 282.08698 377.7912 282.08698Q376.40057 282.08698 375.50995 281.33698Q374.63495 280.57135 374.63495 279.32135L375.9162 279.32135Q375.9162 280.1026 376.4162 280.58698Q376.93182 281.05573 377.7912 281.05573Q378.71307 281.05573 379.19745 280.57135Q379.68182 280.08698 379.68182 279.19635Q379.68182 278.33698 379.15057 277.86823Q378.61932 277.39948 377.6037 277.38385L376.6662 277.38385L376.6662 276.3526ZM382.9787 281.2901Q382.9787 280.96198 383.1662 280.74323Q383.36932 280.52448 383.75995 280.52448Q384.15057 280.52448 384.3537 280.74323Q384.55682 280.96198 384.55682 281.2901Q384.55682 281.6026 384.3537 281.82135Q384.15057 282.02448 383.75995 282.02448Q383.36932 282.02448 383.1662 281.82135Q382.9787 281.6026 382.9787 281.2901ZM392.8537 274.58698Q392.8537 275.33698 392.46307 275.9151Q392.07245 276.49323 391.40057 276.82135Q392.18182 277.1651 392.63495 277.80573Q393.08807 278.44635 393.08807 279.25885Q393.08807 280.55573 392.21307 281.32135Q391.3537 282.08698 389.93182 282.08698Q388.49432 282.08698 387.61932 281.32135Q386.75995 280.5401 386.75995 279.25885Q386.75995 278.44635 387.19745 277.80573Q387.63495 277.14948 388.4162 276.82135Q387.75995 276.49323 387.36932 275.9151Q386.99432 275.32135 386.99432 274.58698Q386.99432 273.33698 387.7912 272.6026Q388.6037 271.8526 389.93182 271.8526Q391.24432 271.8526 392.0412 272.6026Q392.8537 273.33698 392.8537 274.58698ZM391.82245 279.2276Q391.82245 278.39948 391.2912 277.88385Q390.75995 277.3526 389.90057 277.3526Q389.05682 277.3526 388.5412 277.86823Q388.02557 278.38385 388.02557 279.24323Q388.02557 280.08698 388.52557 280.57135Q389.02557 281.05573 389.93182 281.05573Q390.80682 281.05573 391.30682 280.57135Q391.82245 280.07135 391.82245 279.2276ZM389.93182 272.89948Q389.18182 272.89948 388.71307 273.36823Q388.25995 273.82135 388.25995 274.61823Q388.25995 275.36823 388.71307 275.83698Q389.1662 276.30573 389.9162 276.30573Q390.68182 276.30573 391.13495 275.83698Q391.58807 275.36823 391.58807 274.61823Q391.58807 273.8526 391.11932 273.38385Q390.65057 272.89948 389.93182 272.89948ZM394.71307 273.89948Q394.71307 273.00885 395.27557 272.43073Q395.8537 271.8526 396.74432 271.8526Q397.6662 271.8526 398.2287 272.44635Q398.7912 273.02448 398.7912 273.94635L398.7912 274.43073Q398.7912 275.33698 398.21307 275.9151Q397.65057 276.4776 396.75995 276.4776Q395.86932 276.4776 395.2912 275.9151Q394.71307 275.33698 394.71307 274.38385L394.71307 273.89948ZM395.65057 274.43073Q395.65057 274.96198 395.94745 275.30573Q396.25995 275.64948 396.75995 275.64948Q397.24432 275.64948 397.5412 275.32135Q397.83807 274.99323 397.83807 274.39948L397.83807 273.89948Q397.83807 273.36823 397.5412 273.02448Q397.25995 272.68073 396.74432 272.68073Q396.24432 272.68073 395.94745 273.02448Q395.65057 273.36823 395.65057 273.93073L395.65057 274.43073ZM399.55682 279.50885Q399.55682 278.6026 400.11932 278.0401Q400.69745 277.46198 401.58807 277.46198Q402.49432 277.46198 403.05682 278.0401Q403.63495 278.6026 403.63495 279.55573L403.63495 280.0401Q403.63495 280.93073 403.05682 281.50885Q402.49432 282.08698 401.6037 282.08698Q400.7287 282.08698 400.13495 281.52448Q399.55682 280.94635 399.55682 279.99323L399.55682 279.50885ZM400.50995 280.0401Q400.50995 280.57135 400.80682 280.93073Q401.1037 281.27448 401.6037 281.27448Q402.1037 281.27448 402.40057 280.93073Q402.69745 280.58698 402.69745 280.00885L402.69745 279.50885Q402.69745 278.96198 402.38495 278.61823Q402.08807 278.27448 401.6037 278.27448Q401.1037 278.27448 400.80682 278.61823Q400.50995 278.96198 400.50995 279.5401L400.50995 280.0401ZM397.05682 281.19635L396.33807 280.74323L401.19745 272.96198L401.9162 273.4151L397.05682 281.19635Z" fill-rule="nonzero"/><path fill="#000000" d="M166.77594 139.5341L167.71344 139.5341Q168.61969 139.51848 169.11969 139.06535Q169.63531 138.61223 169.63531 137.83098Q169.63531 136.08098 167.90094 136.08098Q167.07281 136.08098 166.58844 136.54973Q166.10406 137.01848 166.10406 137.7841L164.83844 137.7841Q164.83844 136.5966 165.69781 135.81535Q166.57281 135.0341 167.90094 135.0341Q169.30719 135.0341 170.10406 135.7841Q170.90094 136.5341 170.90094 137.8466Q170.90094 138.50285 170.47906 139.11223Q170.07281 139.7216 169.33844 140.01848Q170.16656 140.2841 170.60406 140.89348Q171.05719 141.48723 171.05719 142.3466Q171.05719 143.69035 170.18219 144.48723Q169.30719 145.26848 167.90094 145.26848Q166.51031 145.26848 165.61969 144.51848Q164.74469 143.75285 164.74469 142.50285L166.02594 142.50285Q166.02594 143.2841 166.52594 143.76848Q167.04156 144.23723 167.90094 144.23723Q168.82281 144.23723 169.30719 143.75285Q169.79156 143.26848 169.79156 142.37785Q169.79156 141.51848 169.26031 141.04973Q168.72906 140.58098 167.71344 140.56535L166.77594 140.56535L166.77594 139.5341ZM177.08844 145.12785L175.82281 145.12785L175.82281 136.70598L173.26031 137.62785L173.26031 136.48723L176.88531 135.12785L177.08844 135.12785L177.08844 145.12785ZM181.08844 144.4716Q181.08844 144.14348 181.27594 143.92473Q181.47906 143.70598 181.86969 143.70598Q182.26031 143.70598 182.46344 143.92473Q182.66656 144.14348 182.66656 144.4716Q182.66656 144.7841 182.46344 145.00285Q182.26031 145.20598 181.86969 145.20598Q181.47906 145.20598 181.27594 145.00285Q181.08844 144.7841 181.08844 144.4716ZM191.35406 135.87785L187.22906 145.12785L185.91656 145.12785L190.01031 136.20598L184.63531 136.20598L184.63531 135.17473L191.35406 135.17473L191.35406 135.87785ZM192.82281 137.08098Q192.82281 136.19035 193.38531 135.61223Q193.96344 135.0341 194.85406 135.0341Q195.77594 135.0341 196.33844 135.62785Q196.90094 136.20598 196.90094 137.12785L196.90094 137.61223Q196.90094 138.51848 196.32281 139.0966Q195.76031 139.6591 194.86969 139.6591Q193.97906 139.6591 193.40094 139.0966Q192.82281 138.51848 192.82281 137.56535L192.82281 137.08098ZM193.76031 137.61223Q193.76031 138.14348 194.05719 138.48723Q194.36969 138.83098 194.86969 138.83098Q195.35406 138.83098 195.65094 138.50285Q195.94781 138.17473 195.94781 137.58098L195.94781 137.08098Q195.94781 136.54973 195.65094 136.20598Q195.36969 135.86223 194.85406 135.86223Q194.35406 135.86223 194.05719 136.20598Q193.76031 136.54973 193.76031 137.11223L193.76031 137.61223ZM197.66656 142.69035Q197.66656 141.7841 198.22906 141.2216Q198.80719 140.64348 199.69781 140.64348Q200.60406 140.64348 201.16656 141.2216Q201.74469 141.7841 201.74469 142.73723L201.74469 143.2216Q201.74469 144.11223 201.16656 144.69035Q200.60406 145.26848 199.71344 145.26848Q198.83844 145.26848 198.24469 144.70598Q197.66656 144.12785 197.66656 143.17473L197.66656 142.69035ZM198.61969 143.2216Q198.61969 143.75285 198.91656 144.11223Q199.21344 144.45598 199.71344 144.45598Q200.21344 144.45598 200.51031 144.11223Q200.80719 143.76848 200.80719 143.19035L200.80719 142.69035Q200.80719 142.14348 200.49469 141.79973Q200.19781 141.45598 199.71344 141.45598Q199.21344 141.45598 198.91656 141.79973Q198.61969 142.14348 198.61969 142.7216L198.61969 143.2216ZM195.16656 144.37785L194.44781 143.92473L199.30719 136.14348L200.02594 136.5966L195.16656 144.37785Z" fill-rule="nonzero"/><path fill="#757575" d="M25.846874 29.425Q25.409374 30.05 24.628124 30.3625Q23.846874 30.675 22.815624 30.675Q21.784374 30.675 20.971874 30.190624Q20.159374 29.690624 19.721874 28.784374Q19.284374 27.878124 19.26875 26.690624L19.26875 25.95625Q19.26875 24.01875 20.159374 22.95625Q21.065624 21.89375 22.690624 21.89375Q24.034374 21.89375 24.846874 22.58125Q25.659374 23.26875 25.846874 24.51875L24.721874 24.51875Q24.39375 22.83125 22.70625 22.83125Q21.565624 22.83125 20.9875 23.628124Q20.409374 24.409374 20.39375 25.925L20.39375 26.6125Q20.39375 28.05 21.05 28.909374Q21.70625 29.753124 22.83125 29.753124Q23.45625 29.753124 23.925 29.6125Q24.409374 29.471874 24.721874 29.128124L24.721874 27.221874L22.753124 27.221874L22.753124 26.3L25.846874 26.3L25.846874 29.425ZM30.440624 25.175Q30.190624 25.14375 29.909374 25.14375Q28.83125 25.14375 28.45625 26.05L28.45625 30.55L27.378124 30.55L27.378124 24.20625L28.425 24.20625L28.440624 24.940624Q28.971874 24.096874 29.95625 24.096874Q30.26875 24.096874 30.440624 24.175L30.440624 25.175ZM35.284374 30.55Q35.190624 30.3625 35.128124 29.878124Q34.378124 30.675 33.33125 30.675Q32.39375 30.675 31.784374 30.14375Q31.190624 29.6125 31.190624 28.784374Q31.190624 27.8 31.940624 27.253124Q32.690624 26.70625 34.065624 26.70625L35.1125 26.70625L35.1125 26.20625Q35.1125 25.64375 34.76875 25.315624Q34.440624 24.971874 33.76875 24.971874Q33.190624 24.971874 32.8 25.26875Q32.409374 25.55 32.409374 25.971874L31.315624 25.971874Q31.315624 25.4875 31.64375 25.05Q31.9875 24.6125 32.565624 24.3625Q33.14375 24.096874 33.83125 24.096874Q34.940624 24.096874 35.55 24.64375Q36.175 25.190624 36.20625 26.14375L36.20625 29.065624Q36.20625 29.940624 36.425 30.45625L36.425 30.55L35.284374 30.55ZM33.4875 29.721874Q34.003124 29.721874 34.45625 29.45625Q34.909374 29.190624 35.1125 28.76875L35.1125 27.471874L34.26875 27.471874Q32.26875 27.471874 32.26875 28.64375Q32.26875 29.14375 32.6125 29.440624Q32.95625 29.721874 33.4875 29.721874ZM39.39375 24.20625L39.425 25.003124Q40.159374 24.096874 41.33125 24.096874Q43.346874 24.096874 43.3625 26.3625L43.3625 30.55L42.26875 30.55L42.26875 26.346874Q42.26875 25.675 41.95625 25.346874Q41.659374 25.01875 41.003124 25.01875Q40.471874 25.01875 40.065624 25.3Q39.675 25.58125 39.45625 26.034374L39.45625 30.55L38.378124 30.55L38.378124 24.20625L39.39375 24.20625ZM45.1125 27.33125Q45.1125 25.8625 45.8 24.9875Q46.4875 24.096874 47.6125 24.096874Q48.721874 24.096874 49.378124 24.846874L49.378124 21.55L50.45625 21.55L50.45625 30.55L49.45625 30.55L49.409374 29.8625Q48.753124 30.675 47.596874 30.675Q46.503124 30.675 45.8 29.76875Q45.1125 28.8625 45.1125 27.409374L45.1125 27.33125ZM46.190624 27.45625Q46.190624 28.534374 46.628124 29.14375Q47.08125 29.753124 47.8625 29.753124Q48.89375 29.753124 49.378124 28.815624L49.378124 25.909374Q48.89375 25.01875 47.878124 25.01875Q47.08125 25.01875 46.628124 25.628124Q46.190624 26.2375 46.190624 27.45625ZM53.39375 24.20625L53.425 24.909374Q54.1125 24.096874 55.3 24.096874Q56.628124 24.096874 57.1125 25.1125Q57.425 24.659374 57.925 24.378124Q58.440624 24.096874 59.128124 24.096874Q61.221874 24.096874 61.253124 26.3L61.253124 30.55L60.175 30.55L60.175 26.3625Q60.175 25.690624 59.8625 25.3625Q59.55 25.01875 58.815624 25.01875Q58.20625 25.01875 57.8 25.378124Q57.409374 25.7375 57.346874 26.346874L57.346874 30.55L56.26875 30.55L56.26875 26.39375Q56.26875 25.01875 54.909374 25.01875Q53.846874 25.01875 53.45625 25.925L53.45625 30.55L52.3625 30.55L52.3625 24.20625L53.39375 24.20625ZM67.28438 30.55Q67.19063 30.3625 67.12813 29.878124Q66.37813 30.675 65.33125 30.675Q64.39375 30.675 63.784374 30.14375Q63.190624 29.6125 63.190624 28.784374Q63.190624 27.8 63.940624 27.253124Q64.69063 26.70625 66.06563 26.70625L67.1125 26.70625L67.1125 26.20625Q67.1125 25.64375 66.76875 25.315624Q66.44063 24.971874 65.76875 24.971874Q65.19063 24.971874 64.8 25.26875Q64.40938 25.55 64.40938 25.971874L63.315624 25.971874Q63.315624 25.4875 63.64375 25.05Q63.9875 24.6125 64.56563 24.3625Q65.14375 24.096874 65.83125 24.096874Q66.94063 24.096874 67.55 24.64375Q68.175 25.190624 68.20625 26.14375L68.20625 29.065624Q68.20625 29.940624 68.425 30.45625L68.425 30.55L67.28438 30.55ZM65.4875 29.721874Q66.00313 29.721874 66.45625 29.45625Q66.90938 29.190624 67.1125 28.76875L67.1125 27.471874L66.26875 27.471874Q64.26875 27.471874 64.26875 28.64375Q64.26875 29.14375 64.6125 29.440624Q64.95625 29.721874 65.4875 29.721874Z" fill-rule="nonzero"/><path fill="#9e9e9e" d="M24.846874 48.55L19.253124 48.55L19.253124 47.76875L22.20625 44.4875Q22.8625 43.7375 23.1125 43.284374Q23.3625 42.815624 23.3625 42.315624Q23.3625 41.64375 22.95625 41.221874Q22.565624 40.784374 21.878124 40.784374Q21.08125 40.784374 20.628124 41.253124Q20.175 41.70625 20.175 42.534374L19.096874 42.534374Q19.096874 41.346874 19.846874 40.628124Q20.6125 39.89375 21.878124 39.89375Q23.08125 39.89375 23.76875 40.51875Q24.45625 41.14375 24.45625 42.190624Q24.45625 43.440624 22.846874 45.190624L20.565624 47.659374L24.846874 47.659374L24.846874 48.55ZM26.39375 47.9875Q26.39375 47.70625 26.55 47.51875Q26.721874 47.33125 27.05 47.33125Q27.39375 47.33125 27.565624 47.51875Q27.7375 47.70625 27.7375 47.9875Q27.7375 48.253124 27.565624 48.440624Q27.39375 48.6125 27.05 48.6125Q26.721874 48.6125 26.55 48.440624Q26.39375 48.253124 26.39375 47.9875ZM33.409374 44.8Q33.08125 45.20625 32.596874 45.45625Q32.128124 45.690624 31.565624 45.690624Q30.83125 45.690624 30.284374 45.33125Q29.7375 44.971874 29.440624 44.315624Q29.14375 43.64375 29.14375 42.846874Q29.14375 42.003124 29.45625 41.315624Q29.784374 40.628124 30.378124 40.26875Q30.9875 39.89375 31.784374 39.89375Q33.05 39.89375 33.76875 40.846874Q34.503124 41.8 34.503124 43.425L34.503124 43.7375Q34.503124 46.2375 33.51875 47.378124Q32.534374 48.51875 30.55 48.55L30.33125 48.55L30.33125 47.64375L30.565624 47.64375Q31.909374 47.6125 32.628124 46.940624Q33.346874 46.26875 33.409374 44.8ZM31.7375 44.8Q32.284374 44.8 32.7375 44.471874Q33.20625 44.128124 33.425 43.64375L33.425 43.20625Q33.425 42.14375 32.95625 41.471874Q32.4875 40.8 31.784374 40.8Q31.065624 40.8 30.628124 41.346874Q30.20625 41.89375 30.20625 42.8Q30.20625 43.675 30.6125 44.2375Q31.034374 44.8 31.7375 44.8ZM36.159374 41.659374Q36.159374 40.89375 36.64375 40.39375Q37.14375 39.89375 37.909374 39.89375Q38.690624 39.89375 39.175 40.39375Q39.659374 40.89375 39.659374 41.690624L39.659374 42.1125Q39.659374 42.878124 39.159374 43.378124Q38.675 43.8625 37.925 43.8625Q37.159374 43.8625 36.659374 43.378124Q36.159374 42.878124 36.159374 42.065624L36.159374 41.659374ZM36.971874 42.1125Q36.971874 42.565624 37.221874 42.8625Q37.4875 43.159374 37.925 43.159374Q38.346874 43.159374 38.596874 42.878124Q38.846874 42.58125 38.846874 42.08125L38.846874 41.659374Q38.846874 41.20625 38.596874 40.909374Q38.346874 40.596874 37.909374 40.596874Q37.471874 40.596874 37.221874 40.909374Q36.971874 41.20625 36.971874 41.675L36.971874 42.1125ZM40.315624 46.45625Q40.315624 45.690624 40.8 45.20625Q41.3 44.70625 42.065624 44.70625Q42.83125 44.70625 43.315624 45.20625Q43.815624 45.690624 43.815624 46.503124L43.815624 46.909374Q43.815624 47.675 43.33125 48.175Q42.846874 48.675 42.08125 48.675Q41.315624 48.675 40.815624 48.190624Q40.315624 47.690624 40.315624 46.878124L40.315624 46.45625ZM41.128124 46.909374Q41.128124 47.378124 41.378124 47.675Q41.64375 47.971874 42.08125 47.971874Q42.503124 47.971874 42.753124 47.690624Q43.003124 47.39375 43.003124 46.89375L43.003124 46.45625Q43.003124 45.9875 42.7375 45.70625Q42.4875 45.409374 42.065624 45.409374Q41.64375 45.409374 41.378124 45.70625Q41.128124 45.9875 41.128124 46.4875L41.128124 46.909374ZM38.175 47.909374L37.55 47.51875L41.721874 40.846874L42.33125 41.2375L38.175 47.909374Z" fill-rule="nonzero"/><path stroke="#757575" stroke-width="1.0" stroke-linecap="butt" d="M18.55 35.05L127.05 35.05L281.35828 27.99686" fill-rule="nonzero"/><path fill="#9e9e9e" d="M283.35828 27.99686C283.35828 26.89229 282.46283 25.99686 281.35828 25.99686C280.2537 25.99686 279.35828 26.89229 279.35828 27.99686C279.35828 29.101429 280.2537 29.99686 281.35828 29.99686C282.46283 29.99686 283.35828 29.101429 283.35828 27.99686" fill-rule="nonzero"/><path fill="#757575" d="M19.534374 124.16195L19.534374 115.6307L21.95625 115.6307Q23.065624 115.6307 23.909374 116.1307Q24.76875 116.615074 25.2375 117.521324Q25.70625 118.427574 25.70625 119.615074L25.70625 120.146324Q25.70625 121.365074 25.2375 122.271324Q24.784374 123.177574 23.909374 123.66195Q23.05 124.146324 21.909374 124.16195L19.534374 124.16195ZM20.659374 116.552574L20.659374 123.240074L21.846874 123.240074Q23.14375 123.240074 23.8625 122.4432Q24.596874 121.6307 24.596874 120.1307L24.596874 119.6307Q24.596874 118.177574 23.909374 117.3807Q23.2375 116.5682 21.971874 116.552574L20.659374 116.552574ZM31.284374 124.16195Q31.190624 123.97445 31.128124 123.490074Q30.378124 124.28695 29.33125 124.28695Q28.39375 124.28695 27.784374 123.7557Q27.190624 123.22445 27.190624 122.396324Q27.190624 121.41195 27.940624 120.865074Q28.690624 120.3182 30.065624 120.3182L31.1125 120.3182L31.1125 119.8182Q31.1125 119.2557 30.76875 118.927574Q30.440624 118.583824 29.76875 118.583824Q29.190624 118.583824 28.8 118.8807Q28.409374 119.16195 28.409374 119.583824L27.315624 119.583824Q27.315624 119.09945 27.64375 118.66195Q27.9875 118.22445 28.565624 117.97445Q29.14375 117.708824 29.83125 117.708824Q30.940624 117.708824 31.55 118.2557Q32.175 118.802574 32.20625 119.7557L32.20625 122.677574Q32.20625 123.552574 32.425 124.0682L32.425 124.16195L31.284374 124.16195ZM29.4875 123.333824Q30.003124 123.333824 30.45625 123.0682Q30.909374 122.802574 31.1125 122.3807L31.1125 121.083824L30.26875 121.083824Q28.26875 121.083824 28.26875 122.2557Q28.26875 122.7557 28.6125 123.052574Q28.95625 123.333824 29.4875 123.333824ZM34.1125 120.9432Q34.1125 119.47445 34.8 118.59945Q35.4875 117.708824 36.6125 117.708824Q37.721874 117.708824 38.378124 118.458824L38.378124 115.16195L39.45625 115.16195L39.45625 124.16195L38.45625 124.16195L38.409374 123.47445Q37.753124 124.28695 36.596874 124.28695Q35.503124 124.28695 34.8 123.3807Q34.1125 122.47445 34.1125 121.021324L34.1125 120.9432ZM35.190624 121.0682Q35.190624 122.146324 35.628124 122.7557Q36.08125 123.365074 36.8625 123.365074Q37.89375 123.365074 38.378124 122.427574L38.378124 119.521324Q37.89375 118.6307 36.878124 118.6307Q36.08125 118.6307 35.628124 119.240074Q35.190624 119.84945 35.190624 121.0682Z" fill-rule="nonzero"/><path fill="#9e9e9e" d="M20.83125 137.36507L21.64375 137.36507Q22.425 137.34944 22.8625 136.95882Q23.3 136.56819 23.3 135.89632Q23.3 134.39632 21.8 134.39632Q21.096874 134.39632 20.675 134.80257Q20.26875 135.20882 20.26875 135.86507L19.175 135.86507Q19.175 134.84944 19.909374 134.17757Q20.659374 133.50569 21.8 133.50569Q23.003124 133.50569 23.690624 134.14632Q24.378124 134.78694 24.378124 135.92757Q24.378124 136.49007 24.01875 137.00569Q23.659374 137.52132 23.034374 137.78694Q23.7375 138.00569 24.1125 138.52132Q24.503124 139.03694 24.503124 139.78694Q24.503124 140.92757 23.753124 141.61507Q23.003124 142.28694 21.8 142.28694Q20.6125 142.28694 19.846874 141.63069Q19.096874 140.97444 19.096874 139.91194L20.190624 139.91194Q20.190624 140.58382 20.628124 140.99007Q21.065624 141.39632 21.815624 141.39632Q22.596874 141.39632 23.003124 140.99007Q23.425 140.56819 23.425 139.80257Q23.425 139.06819 22.971874 138.67757Q22.51875 138.27132 21.64375 138.25569L20.83125 138.25569L20.83125 137.36507ZM29.815624 142.16194L28.7375 142.16194L28.7375 134.94319L26.55 135.74007L26.55 134.75569L29.659374 133.58382L29.815624 133.58382L29.815624 142.16194ZM33.39375 141.59944Q33.39375 141.31819 33.55 141.13069Q33.721874 140.94319 34.05 140.94319Q34.39375 140.94319 34.565624 141.13069Q34.7375 141.31819 34.7375 141.59944Q34.7375 141.86507 34.565624 142.05257Q34.39375 142.22444 34.05 142.22444Q33.721874 142.22444 33.55 142.05257Q33.39375 141.86507 33.39375 141.59944ZM41.76875 134.24007L38.2375 142.16194L37.096874 142.16194L40.6125 134.52132L36.003124 134.52132L36.003124 133.63069L41.76875 133.63069L41.76875 134.24007ZM43.159374 135.27132Q43.159374 134.50569 43.64375 134.00569Q44.14375 133.50569 44.909374 133.50569Q45.690624 133.50569 46.175 134.00569Q46.659374 134.50569 46.659374 135.30257L46.659374 135.72444Q46.659374 136.49007 46.159374 136.99007Q45.675 137.47444 44.925 137.47444Q44.159374 137.47444 43.659374 136.99007Q43.159374 136.49007 43.159374 135.67757L43.159374 135.27132ZM43.971874 135.72444Q43.971874 136.17757 44.221874 136.47444Q44.4875 136.77132 44.925 136.77132Q45.346874 136.77132 45.596874 136.49007Q45.846874 136.19319 45.846874 135.69319L45.846874 135.27132Q45.846874 134.81819 45.596874 134.52132Q45.346874 134.20882 44.909374 134.20882Q44.471874 134.20882 44.221874 134.52132Q43.971874 134.81819 43.971874 135.28694L43.971874 135.72444ZM47.315624 140.06819Q47.315624 139.30257 47.8 138.81819Q48.3 138.31819 49.065624 138.31819Q49.83125 138.31819 50.315624 138.81819Q50.815624 139.30257 50.815624 140.11507L50.815624 140.52132Q50.815624 141.28694 50.33125 141.78694Q49.846874 142.28694 49.08125 142.28694Q48.315624 142.28694 47.815624 141.80257Q47.315624 141.30257 47.315624 140.49007L47.315624 140.06819ZM48.128124 140.52132Q48.128124 140.99007 48.378124 141.28694Q48.64375 141.58382 49.08125 141.58382Q49.503124 141.58382 49.753124 141.30257Q50.003124 141.00569 50.003124 140.50569L50.003124 140.06819Q50.003124 139.59944 49.7375 139.31819Q49.4875 139.02132 49.065624 139.02132Q48.64375 139.02132 48.378124 139.31819Q48.128124 139.59944 48.128124 140.09944L48.128124 140.52132ZM45.175 141.52132L44.55 141.13069L48.721874 134.45882L49.33125 134.84944L45.175 141.52132Z" fill-rule="nonzero"/><path stroke="#757575" stroke-width="1.0" stroke-linecap="butt" d="M18.55 128.66194L127.05 128.66194L151.93181 128.66194" fill-rule="nonzero"/><path fill="#9e9e9e" d="M153.93181 128.66194C153.93181 127.55738 153.03638 126.66195 151.93181 126.66195C150.82724 126.66195 149.93181 127.55738 149.93181 128.66194C149.93181 129.76651 150.82724 130.66194 151.93181 130.66194C153.03638 130.66194 153.93181 129.76651 153.93181 128.66194" fill-rule="nonzero"/><path fill="#757575" d="M491.4344 32.20051L491.4344 23.669258L494.23126 23.669258Q495.6219 23.669258 496.3094 24.247383Q497.0125 24.809883 497.0125 25.934883Q497.0125 26.544258 496.66876 27.013008Q496.34064 27.466133 495.7469 27.716133Q496.45 27.903633 496.84064 28.450508Q497.2469 28.981758 497.2469 29.731758Q497.2469 30.888008 496.4969 31.544258Q495.7625 32.20051 494.40314 32.20051L491.4344 32.20051ZM492.5594 28.216133L492.5594 31.278633L494.41876 31.278633Q495.21564 31.278633 495.66876 30.872383Q496.1219 30.466133 496.1219 29.747383Q496.1219 28.216133 494.4344 28.216133L492.5594 28.216133ZM492.5594 27.309883L494.2625 27.309883Q494.9969 27.309883 495.4344 26.950508Q495.8875 26.575508 495.8875 25.934883Q495.8875 25.231758 495.48126 24.919258Q495.075 24.591133 494.23126 24.591133L492.5594 24.591133L492.5594 27.309883ZM497.98126 28.966133Q497.98126 28.044258 498.34064 27.294258Q498.71564 26.544258 499.3719 26.153633Q500.02814 25.747383 500.85626 25.747383Q502.15314 25.747383 502.95 26.638008Q503.7625 27.528633 503.7625 29.028633L503.7625 29.106758Q503.7625 30.028633 503.40314 30.763008Q503.04376 31.497383 502.3875 31.919258Q501.73126 32.32551 500.8719 32.32551Q499.59064 32.32551 498.77814 31.434883Q497.98126 30.528633 497.98126 29.044258L497.98126 28.966133ZM499.075 29.106758Q499.075 30.153633 499.5594 30.794258Q500.0594 31.434883 500.8719 31.434883Q501.7 31.434883 502.1844 30.794258Q502.66876 30.138008 502.66876 28.966133Q502.66876 27.934883 502.16876 27.294258Q501.6844 26.638008 500.85626 26.638008Q500.0594 26.638008 499.5594 27.278633Q499.075 27.903633 499.075 29.106758ZM506.7469 24.325508L506.7469 25.856758L507.91876 25.856758L507.91876 26.700508L506.7469 26.700508L506.7469 30.622383Q506.7469 31.013008 506.90314 31.200508Q507.0594 31.388008 507.4344 31.388008Q507.6219 31.388008 507.95 31.325508L507.95 32.20051Q507.52814 32.32551 507.1219 32.32551Q506.40314 32.32551 506.02814 31.888008Q505.65314 31.434883 505.65314 30.622383L505.65314 26.700508L504.4969 26.700508L504.4969 25.856758L505.65314 25.856758L505.65314 24.325508L506.7469 24.325508ZM510.35626 26.622383Q511.075 25.747383 512.23126 25.747383Q514.2469 25.747383 514.2625 28.013008L514.2625 32.20051L513.16876 32.20051L513.16876 27.997383Q513.16876 27.325508 512.85626 26.997383Q512.5594 26.669258 511.90314 26.669258Q511.3719 26.669258 510.96564 26.950508Q510.575 27.231758 510.35626 27.684883L510.35626 32.20051L509.27814 32.20051L509.27814 23.200508L510.35626 23.200508L510.35626 26.622383ZM520.8875 23.669258L523.6844 30.622383L526.46564 23.669258L527.9344 23.669258L527.9344 32.20051L526.8094 32.20051L526.8094 28.872383L526.91876 25.294258L524.10626 32.20051L523.2469 32.20051L520.45 25.309883L520.5594 28.872383L520.5594 32.20051L519.4344 32.20051L519.4344 23.669258L520.8875 23.669258ZM528.98126 28.966133Q528.98126 28.044258 529.34064 27.294258Q529.71564 26.544258 530.3719 26.153633Q531.02814 25.747383 531.85626 25.747383Q533.15314 25.747383 533.95 26.638008Q534.7625 27.528633 534.7625 29.028633L534.7625 29.106758Q534.7625 30.028633 534.40314 30.763008Q534.04376 31.497383 533.3875 31.919258Q532.73126 32.32551 531.8719 32.32551Q530.59064 32.32551 529.77814 31.434883Q528.98126 30.528633 528.98126 29.044258L528.98126 28.966133ZM530.075 29.106758Q530.075 30.153633 530.5594 30.794258Q531.0594 31.434883 531.8719 31.434883Q532.7 31.434883 533.1844 30.794258Q533.66876 30.138008 533.66876 28.966133Q533.66876 27.934883 533.16876 27.294258Q532.6844 26.638008 531.85626 26.638008Q531.0594 26.638008 530.5594 27.278633Q530.075 27.903633 530.075 29.106758ZM537.29376 25.856758L537.325 26.559883Q538.0125 25.747383 539.2 25.747383Q540.52814 25.747383 541.0125 26.763008Q541.325 26.309883 541.825 26.028633Q542.34064 25.747383 543.02814 25.747383Q545.1219 25.747383 545.15314 27.950508L545.15314 32.20051L544.075 32.20051L544.075 28.013008Q544.075 27.341133 543.7625 27.013008Q543.45 26.669258 542.71564 26.669258Q542.10626 26.669258 541.7 27.028633Q541.3094 27.388008 541.2469 27.997383L541.2469 32.20051L540.16876 32.20051L540.16876 28.044258Q540.16876 26.669258 538.8094 26.669258Q537.7469 26.669258 537.35626 27.575508L537.35626 32.20051L536.2625 32.20051L536.2625 25.856758L537.29376 25.856758ZM550.04376 29.903633Q550.04376 29.294258 550.3875 28.778633Q550.73126 28.263008 551.7 27.575508Q551.1219 26.888008 550.9344 26.466133Q550.7469 26.044258 550.7469 25.622383Q550.7469 24.653633 551.3094 24.106758Q551.8875 23.544258 552.8719 23.544258Q553.7469 23.544258 554.325 24.059883Q554.90314 24.575508 554.90314 25.356758Q554.90314 25.872383 554.6375 26.309883Q554.3719 26.747383 553.73126 27.231758L553.10626 27.684883L554.9969 29.950508Q555.40314 29.200508 555.40314 28.263008L556.3719 28.263008Q556.3719 29.763008 555.65314 30.747383L556.8719 32.20051L555.575 32.20051L555.0125 31.528633Q554.575 31.919258 553.98126 32.122383Q553.40314 32.32551 552.8094 32.32551Q551.5594 32.32551 550.79376 31.669258Q550.04376 30.997383 550.04376 29.903633ZM552.8094 31.434883Q553.66876 31.434883 554.3719 30.778633L552.29376 28.278633L552.10626 28.419258Q551.1219 29.153633 551.1219 29.903633Q551.1219 30.606758 551.575 31.028633Q552.02814 31.434883 552.8094 31.434883ZM551.825 25.591133Q551.825 26.153633 552.5125 26.997383L553.2 26.513008Q553.60626 26.231758 553.7469 25.981758Q553.90314 25.716133 553.90314 25.356758Q553.90314 24.966133 553.60626 24.700508Q553.3094 24.434883 552.8719 24.434883Q552.3875 24.434883 552.10626 24.763008Q551.825 25.091133 551.825 25.591133ZM560.4344 32.20051L560.4344 23.669258L562.85626 23.669258Q563.96564 23.669258 564.8094 24.169258Q565.66876 24.653633 566.1375 25.559883Q566.60626 26.466133 566.60626 27.653633L566.60626 28.184883Q566.60626 29.403633 566.1375 30.309883Q565.6844 31.216133 564.8094 31.700508Q563.95 32.184883 562.8094 32.20051L560.4344 32.20051ZM561.5594 24.591133L561.5594 31.278633L562.7469 31.278633Q564.04376 31.278633 564.7625 30.481758Q565.4969 29.669258 565.4969 28.169258L565.4969 27.669258Q565.4969 26.216133 564.8094 25.419258Q564.1375 24.606758 562.8719 24.591133L561.5594 24.591133ZM572.1844 32.20051Q572.09064 32.01301 572.02814 31.528633Q571.27814 32.32551 570.23126 32.32551Q569.29376 32.32551 568.6844 31.794258Q568.09064 31.263008 568.09064 30.434883Q568.09064 29.450508 568.84064 28.903633Q569.59064 28.356758 570.96564 28.356758L572.0125 28.356758L572.0125 27.856758Q572.0125 27.294258 571.66876 26.966133Q571.34064 26.622383 570.66876 26.622383Q570.09064 26.622383 569.7 26.919258Q569.3094 27.200508 569.3094 27.622383L568.21564 27.622383Q568.21564 27.138008 568.54376 26.700508Q568.8875 26.263008 569.46564 26.013008Q570.04376 25.747383 570.73126 25.747383Q571.84064 25.747383 572.45 26.294258Q573.075 26.841133 573.10626 27.794258L573.10626 30.716133Q573.10626 31.591133 573.325 32.10676L573.325 32.20051L572.1844 32.20051ZM570.3875 31.372383Q570.90314 31.372383 571.35626 31.106758Q571.8094 30.841133 572.0125 30.419258L572.0125 29.122383L571.16876 29.122383Q569.16876 29.122383 569.16876 30.294258Q569.16876 30.794258 569.5125 31.091133Q569.85626 31.372383 570.3875 31.372383ZM575.0125 28.981758Q575.0125 27.513008 575.7 26.638008Q576.3875 25.747383 577.5125 25.747383Q578.6219 25.747383 579.27814 26.497383L579.27814 23.200508L580.35626 23.200508L580.35626 32.20051L579.35626 32.20051L579.3094 31.513008Q578.65314 32.32551 577.4969 32.32551Q576.40314 32.32551 575.7 31.419258Q575.0125 30.513008 575.0125 29.059883L575.0125 28.981758ZM576.09064 29.106758Q576.09064 30.184883 576.52814 30.794258Q576.98126 31.403633 577.7625 31.403633Q578.79376 31.403633 579.27814 30.466133L579.27814 27.559883Q578.79376 26.669258 577.77814 26.669258Q576.98126 26.669258 576.52814 27.278633Q576.09064 27.888008 576.09064 29.106758Z" fill-rule="nonzero"/><path fill="#9e9e9e" d="M552.71564 50.20051L551.6375 50.20051L551.6375 42.98176L549.45 43.778633L549.45 42.79426L552.5594 41.622383L552.71564 41.622383L552.71564 50.20051ZM559.71564 50.20051L558.6375 50.20051L558.6375 42.98176L556.45 43.778633L556.45 42.79426L559.5594 41.622383L559.71564 41.622383L559.71564 50.20051ZM563.29376 49.63801Q563.29376 49.35676 563.45 49.16926Q563.6219 48.98176 563.95 48.98176Q564.29376 48.98176 564.46564 49.16926Q564.6375 49.35676 564.6375 49.63801Q564.6375 49.903633 564.46564 50.091133Q564.29376 50.26301 563.95 50.26301Q563.6219 50.26301 563.45 50.091133Q563.29376 49.903633 563.29376 49.63801ZM567.73126 45.403633L568.54376 45.403633Q569.325 45.38801 569.7625 44.997383Q570.2 44.60676 570.2 43.934883Q570.2 42.434883 568.7 42.434883Q567.9969 42.434883 567.575 42.841133Q567.16876 43.247383 567.16876 43.903633L566.075 43.903633Q566.075 42.88801 566.8094 42.216133Q567.5594 41.54426 568.7 41.54426Q569.90314 41.54426 570.59064 42.184883Q571.27814 42.82551 571.27814 43.966133Q571.27814 44.528633 570.91876 45.04426Q570.5594 45.559883 569.9344 45.82551Q570.6375 46.04426 571.0125 46.559883Q571.40314 47.07551 571.40314 47.82551Q571.40314 48.966133 570.65314 49.653633Q569.90314 50.32551 568.7 50.32551Q567.5125 50.32551 566.7469 49.66926Q565.9969 49.01301 565.9969 47.95051L567.09064 47.95051Q567.09064 48.622383 567.52814 49.028633Q567.96564 49.434883 568.71564 49.434883Q569.4969 49.434883 569.90314 49.028633Q570.325 48.60676 570.325 47.841133Q570.325 47.10676 569.8719 46.716133Q569.41876 46.309883 568.54376 46.29426L567.73126 46.29426L567.73126 45.403633ZM573.0594 43.309883Q573.0594 42.54426 573.54376 42.04426Q574.04376 41.54426 574.8094 41.54426Q575.59064 41.54426 576.075 42.04426Q576.5594 42.54426 576.5594 43.341133L576.5594 43.76301Q576.5594 44.528633 576.0594 45.028633Q575.575 45.51301 574.825 45.51301Q574.0594 45.51301 573.5594 45.028633Q573.0594 44.528633 573.0594 43.716133L573.0594 43.309883ZM573.8719 43.76301Q573.8719 44.216133 574.1219 44.51301Q574.3875 44.809883 574.825 44.809883Q575.2469 44.809883 575.4969 44.528633Q575.7469 44.23176 575.7469 43.73176L575.7469 43.309883Q575.7469 42.85676 575.4969 42.559883Q575.2469 42.247383 574.8094 42.247383Q574.3719 42.247383 574.1219 42.559883Q573.8719 42.85676 573.8719 43.32551L573.8719 43.76301ZM577.21564 48.10676Q577.21564 47.341133 577.7 46.85676Q578.2 46.35676 578.96564 46.35676Q579.73126 46.35676 580.21564 46.85676Q580.71564 47.341133 580.71564 48.153633L580.71564 48.559883Q580.71564 49.32551 580.23126 49.82551Q579.7469 50.32551 578.98126 50.32551Q578.21564 50.32551 577.71564 49.841133Q577.21564 49.341133 577.21564 48.528633L577.21564 48.10676ZM578.02814 48.559883Q578.02814 49.028633 578.27814 49.32551Q578.54376 49.622383 578.98126 49.622383Q579.40314 49.622383 579.65314 49.341133Q579.90314 49.04426 579.90314 48.54426L579.90314 48.10676Q579.90314 47.63801 579.6375 47.35676Q579.3875 47.059883 578.96564 47.059883Q578.54376 47.059883 578.27814 47.35676Q578.02814 47.63801 578.02814 48.13801L578.02814 48.559883ZM575.075 49.559883L574.45 49.16926L578.6219 42.497383L579.23126 42.88801L575.075 49.559883Z" fill-rule="nonzero"/><path stroke="#757575" stroke-width="1.0" stroke-linecap="butt" d="M581.45 36.70051L472.95 36.70051L354.89502 36.70051" fill-rule="nonzero"/><path fill="#9e9e9e" d="M356.89502 36.70051C356.89502 35.59594 355.9996 34.70051 354.89502 34.70051C353.79047 34.70051 352.89502 35.59594 352.89502 36.70051C352.89502 37.805077 353.79047 38.70051 354.89502 38.70051C355.9996 38.70051 356.89502 37.805077 356.89502 36.70051" fill-rule="nonzero"/><path fill="#757575" d="M555.8875 288.93414L558.6844 295.88727L561.46564 288.93414L562.9344 288.93414L562.9344 297.4654L561.8094 297.4654L561.8094 294.13727L561.91876 290.55914L559.10626 297.4654L558.2469 297.4654L555.45 290.57477L555.5594 294.13727L555.5594 297.4654L554.4344 297.4654L554.4344 288.93414L555.8875 288.93414ZM563.98126 294.23102Q563.98126 293.30914 564.34064 292.55914Q564.71564 291.80914 565.3719 291.41852Q566.02814 291.01227 566.85626 291.01227Q568.15314 291.01227 568.95 291.9029Q569.7625 292.79352 569.7625 294.29352L569.7625 294.37164Q569.7625 295.29352 569.40314 296.0279Q569.04376 296.76227 568.3875 297.18414Q567.73126 297.5904 566.8719 297.5904Q565.59064 297.5904 564.77814 296.69977Q563.98126 295.79352 563.98126 294.30914L563.98126 294.23102ZM565.075 294.37164Q565.075 295.41852 565.5594 296.05914Q566.0594 296.69977 566.8719 296.69977Q567.7 296.69977 568.1844 296.05914Q568.66876 295.4029 568.66876 294.23102Q568.66876 293.19977 568.16876 292.55914Q567.6844 291.9029 566.85626 291.9029Q566.0594 291.9029 565.5594 292.54352Q565.075 293.16852 565.075 294.37164ZM572.29376 291.12164L572.325 291.82477Q573.0125 291.01227 574.2 291.01227Q575.52814 291.01227 576.0125 292.0279Q576.325 291.57477 576.825 291.29352Q577.34064 291.01227 578.02814 291.01227Q580.1219 291.01227 580.15314 293.2154L580.15314 297.4654L579.075 297.4654L579.075 293.2779Q579.075 292.60602 578.7625 292.2779Q578.45 291.93414 577.71564 291.93414Q577.10626 291.93414 576.7 292.29352Q576.3094 292.6529 576.2469 293.26227L576.2469 297.4654L575.16876 297.4654L575.16876 293.30914Q575.16876 291.93414 573.8094 291.93414Q572.7469 291.93414 572.35626 292.8404L572.35626 297.4654L571.2625 297.4654L571.2625 291.12164L572.29376 291.12164Z" fill-rule="nonzero"/><path fill="#9e9e9e" d="M549.65314 311.18414L550.09064 306.93414L554.46564 306.93414L554.46564 307.93414L551.0125 307.93414L550.7469 310.26227Q551.3875 309.88727 552.1844 309.88727Q553.34064 309.88727 554.02814 310.66852Q554.71564 311.43414 554.71564 312.74664Q554.71564 314.05914 553.9969 314.82477Q553.29376 315.5904 552.0125 315.5904Q550.8875 315.5904 550.16876 314.9654Q549.45 314.32477 549.35626 313.2154L550.3719 313.2154Q550.48126 313.94977 550.90314 314.32477Q551.325 314.69977 552.0125 314.69977Q552.7625 314.69977 553.2 314.18414Q553.6375 313.66852 553.6375 312.76227Q553.6375 311.9029 553.16876 311.38727Q552.7 310.87164 551.91876 310.87164Q551.21564 310.87164 550.8094 311.16852L550.52814 311.4029L549.65314 311.18414ZM557.73126 310.66852L558.54376 310.66852Q559.325 310.6529 559.7625 310.26227Q560.2 309.87164 560.2 309.19977Q560.2 307.69977 558.7 307.69977Q557.9969 307.69977 557.575 308.10602Q557.16876 308.51227 557.16876 309.16852L556.075 309.16852Q556.075 308.1529 556.8094 307.48102Q557.5594 306.80914 558.7 306.80914Q559.90314 306.80914 560.59064 307.44977Q561.27814 308.0904 561.27814 309.23102Q561.27814 309.79352 560.91876 310.30914Q560.5594 310.82477 559.9344 311.0904Q560.6375 311.30914 561.0125 311.82477Q561.40314 312.3404 561.40314 313.0904Q561.40314 314.23102 560.65314 314.91852Q559.90314 315.5904 558.7 315.5904Q557.5125 315.5904 556.7469 314.93414Q555.9969 314.2779 555.9969 313.2154L557.09064 313.2154Q557.09064 313.88727 557.52814 314.29352Q557.96564 314.69977 558.71564 314.69977Q559.4969 314.69977 559.90314 314.29352Q560.325 313.87164 560.325 313.10602Q560.325 312.37164 559.8719 311.98102Q559.41876 311.57477 558.54376 311.55914L557.73126 311.55914L557.73126 310.66852ZM563.29376 314.9029Q563.29376 314.62164 563.45 314.43414Q563.6219 314.24664 563.95 314.24664Q564.29376 314.24664 564.46564 314.43414Q564.6375 314.62164 564.6375 314.9029Q564.6375 315.16852 564.46564 315.35602Q564.29376 315.5279 563.95 315.5279Q563.6219 315.5279 563.45 315.35602Q563.29376 315.16852 563.29376 314.9029ZM571.34064 309.1529Q571.34064 309.79352 570.9969 310.29352Q570.65314 310.79352 570.09064 311.07477Q570.7469 311.35602 571.1375 311.91852Q571.52814 312.4654 571.52814 313.16852Q571.52814 314.26227 570.77814 314.93414Q570.04376 315.5904 568.825 315.5904Q567.59064 315.5904 566.84064 314.93414Q566.10626 314.26227 566.10626 313.16852Q566.10626 312.4654 566.48126 311.91852Q566.85626 311.35602 567.52814 311.07477Q566.96564 310.79352 566.6375 310.29352Q566.3094 309.79352 566.3094 309.1529Q566.3094 308.07477 566.9969 307.44977Q567.6844 306.80914 568.825 306.80914Q569.95 306.80914 570.6375 307.44977Q571.34064 308.07477 571.34064 309.1529ZM570.45 313.13727Q570.45 312.41852 569.9969 311.98102Q569.54376 311.5279 568.8094 311.5279Q568.075 311.5279 567.6219 311.98102Q567.1844 312.41852 567.1844 313.1529Q567.1844 313.87164 567.6219 314.29352Q568.0594 314.69977 568.825 314.69977Q569.575 314.69977 570.0125 314.2779Q570.45 313.85602 570.45 313.13727ZM568.825 307.69977Q568.1844 307.69977 567.77814 308.10602Q567.3875 308.49664 567.3875 309.18414Q567.3875 309.82477 567.77814 310.23102Q568.16876 310.63727 568.8094 310.63727Q569.46564 310.63727 569.85626 310.23102Q570.2469 309.82477 570.2469 309.18414Q570.2469 308.5279 569.84064 308.12164Q569.4344 307.69977 568.825 307.69977ZM573.0594 308.57477Q573.0594 307.80914 573.54376 307.30914Q574.04376 306.80914 574.8094 306.80914Q575.59064 306.80914 576.075 307.30914Q576.5594 307.80914 576.5594 308.60602L576.5594 309.0279Q576.5594 309.79352 576.0594 310.29352Q575.575 310.7779 574.825 310.7779Q574.0594 310.7779 573.5594 310.29352Q573.0594 309.79352 573.0594 308.98102L573.0594 308.57477ZM573.8719 309.0279Q573.8719 309.48102 574.1219 309.7779Q574.3875 310.07477 574.825 310.07477Q575.2469 310.07477 575.4969 309.79352Q575.7469 309.49664 575.7469 308.99664L575.7469 308.57477Q575.7469 308.12164 575.4969 307.82477Q575.2469 307.51227 574.8094 307.51227Q574.3719 307.51227 574.1219 307.82477Q573.8719 308.12164 573.8719 308.5904L573.8719 309.0279ZM577.21564 313.37164Q577.21564 312.60602 577.7 312.12164Q578.2 311.62164 578.96564 311.62164Q579.73126 311.62164 580.21564 312.12164Q580.71564 312.60602 580.71564 313.41852L580.71564 313.82477Q580.71564 314.5904 580.23126 315.0904Q579.7469 315.5904 578.98126 315.5904Q578.21564 315.5904 577.71564 315.10602Q577.21564 314.60602 577.21564 313.79352L577.21564 313.37164ZM578.02814 313.82477Q578.02814 314.29352 578.27814 314.5904Q578.54376 314.88727 578.98126 314.88727Q579.40314 314.88727 579.65314 314.60602Q579.90314 314.30914 579.90314 313.80914L579.90314 313.37164Q579.90314 312.9029 579.6375 312.62164Q579.3875 312.32477 578.96564 312.32477Q578.54376 312.32477 578.27814 312.62164Q578.02814 312.9029 578.02814 313.4029L578.02814 313.82477ZM575.075 314.82477L574.45 314.43414L578.6219 307.76227L579.23126 308.1529L575.075 314.82477Z" fill-rule="nonzero"/><path stroke="#757575" stroke-width="1.0" stroke-linecap="butt" d="M581.45 301.9654L472.95 301.9654L407.6595 301.9654" fill-rule="nonzero"/><path fill="#9e9e9e" d="M409.6595 301.9654C409.6595 300.8608 408.76407 299.9654 407.6595 299.9654C406.55493 299.9654 405.6595 300.8608 405.6595 301.9654C405.6595 303.06995 406.55493 303.9654 407.6595 303.9654C408.76407 303.9654 409.6595 303.06995 409.6595 301.9654" fill-rule="nonzero"/></svg>